<svg xmlns="http://www.w3.org/2000/svg" xmlns:xlink="http://www.w3.org/1999/xlink" viewBox="0 0 584.75 273.93"><defs><style>.cls-1,.cls-2{fill:#256d7d;}.cls-2{stroke:#256d7d;stroke-linejoin:round;stroke-width:0.5px;}.cls-3{fill:#95c121;}.cls-4{fill:url(#Nouvelle_nuance_de_dégradé_1);}.cls-5{fill:url(#Dégradé_sans_nom_14);}.cls-6{fill:url(#Dégradé_sans_nom_14-2);}.cls-7{fill:url(#Dégradé_sans_nom_17);}.cls-8{fill:url(#Dégradé_sans_nom_14-3);}.cls-9{fill:url(#Dégradé_sans_nom_15);}.cls-10{fill:url(#Dégradé_sans_nom_16);}.cls-11{fill:url(#Nouvelle_nuance_de_dégradé_1-2);}</style><linearGradient id="Nouvelle_nuance_de_dégradé_1" x1="-417.29" y1="106.38" x2="197.9" y2="27.09" gradientUnits="userSpaceOnUse"><stop offset="0" stop-color="#009fe3"/><stop offset="0" stop-color="#009fe3"/><stop offset="1" stop-color="#95c11f"/></linearGradient><linearGradient id="Dégradé_sans_nom_14" x1="248.75" y1="129.64" x2="179.13" y2="60.64" gradientUnits="userSpaceOnUse"><stop offset="0" stop-color="#009fe3"/><stop offset="0" stop-color="#009fe3"/><stop offset="0.49" stop-color="#0daf99"/><stop offset="1" stop-color="#95c11f"/></linearGradient><linearGradient id="Dégradé_sans_nom_14-2" x1="220.22" y1="158.43" x2="150.6" y2="89.42" xlink:href="#Dégradé_sans_nom_14"/><linearGradient id="Dégradé_sans_nom_17" x1="241.09" y1="137.37" x2="171.47" y2="68.37" gradientUnits="userSpaceOnUse"><stop offset="0" stop-color="#009fe3"/><stop offset="0" stop-color="#009fe3"/><stop offset="0.02" stop-color="#01a1dc"/><stop offset="0.07" stop-color="#06a6c3"/><stop offset="0.14" stop-color="#09aab0"/><stop offset="0.21" stop-color="#0bada3"/><stop offset="0.31" stop-color="#0daf9b"/><stop offset="0.49" stop-color="#0daf99"/><stop offset="1" stop-color="#95c11f"/></linearGradient><linearGradient id="Dégradé_sans_nom_14-3" x1="235.78" y1="142.73" x2="166.16" y2="73.72" xlink:href="#Dégradé_sans_nom_14"/><linearGradient id="Dégradé_sans_nom_15" x1="-7.21" y1="106.31" x2="247.31" y2="73.5" gradientUnits="userSpaceOnUse"><stop offset="0" stop-color="#009fe3"/><stop offset="0" stop-color="#009fe3"/><stop offset="0.41" stop-color="#0daf99"/><stop offset="1" stop-color="#95c11f"/></linearGradient><linearGradient id="Dégradé_sans_nom_16" x1="187.99" y1="56.83" x2="204.82" y2="-89.59" gradientTransform="translate(0 133.33)" gradientUnits="userSpaceOnUse"><stop offset="0" stop-color="#009fe3"/><stop offset="0.08" stop-color="#009fe3"/><stop offset="0.49" stop-color="#0daf99"/><stop offset="0.57" stop-color="#1bb18c"/><stop offset="0.72" stop-color="#40b66b"/><stop offset="0.92" stop-color="#7bbe36"/><stop offset="1" stop-color="#95c11f"/></linearGradient><linearGradient id="Nouvelle_nuance_de_dégradé_1-2" x1="-8.25" y1="245.75" x2="21.45" y2="246.93" xlink:href="#Nouvelle_nuance_de_dégradé_1"/></defs><title>Logo signature uneligne</title><g id="Mode_Isolation" data-name="Mode Isolation"><path class="cls-1" d="M474.19,67.78h0a1.81,1.81,0,0,1,1.71,2.41l-32.58,86.4a1.83,1.83,0,0,1-1.72,1.22H420.11L460.92,49.57a1.82,1.82,0,0,1,1.71-1.21h18.79a8.5,8.5,0,0,1,7.94,5.49l38.27,101.53a1.82,1.82,0,0,1-1.71,2.43H506.78a1.81,1.81,0,0,1-1.71-1.22l-32.59-86.4A1.81,1.81,0,0,1,474.19,67.78Z"/><path class="cls-1" d="M424.21,157.81H403.38c0-23.05-20.24-42.53-43.29-42.53V94.45C394.63,94.45,424.21,123.28,424.21,157.81Z"/><path class="cls-1" d="M329.89,48.28v19H299.46a8.71,8.71,0,0,0-8.7,8.7V94.72h39.13V113.9H290.76v43.85H269.61V72.45a24.17,24.17,0,0,1,24.16-24.17Z"/><path class="cls-1" d="M382.91,114.06a16.23,16.23,0,0,0-9-2.54h-7.68v46.23H345.06V48.28h39.42q15.43,0,25.15,8.54t9.72,22.25a27.71,27.71,0,0,1-4.82,16.26q-4.81,6.94-14.3,10.94M379.7,95c5.54,0,9.88-1.38,13.05-4.15s4.74-6.56,4.74-11.36q0-7.53-4.7-11.25t-13.4-3.72H366.22V95Z"/><path class="cls-2" d="M94.63,46.87a64,64,0,0,1,30.8,8V73.67q-17-10.28-30.17-10.27-8,0-12.5,3.1a9.58,9.58,0,0,0-4.51,8.26q0,6.19,8.39,11.45Q89,87.77,104.74,95q13.49,6.34,19.44,14.11a29.72,29.72,0,0,1,5.95,18.65q0,14.1-10.15,22.76t-26.29,8.66a62.22,62.22,0,0,1-18.06-2.31,78.39,78.39,0,0,1-17-7.95V128.05q17.57,14.58,33.07,14.58c5.18,0,9.35-1.13,12.54-3.37a10.44,10.44,0,0,0,4.78-8.94q0-7.59-8.31-12.38-6.88-3.76-17.78-9Q70,103.05,63.64,95.22A27.94,27.94,0,0,1,57.25,77q0-13.8,10.27-22t27.11-8.19"/><path class="cls-3" d="M220.71,181.67a18.58,18.58,0,0,0-.47-2.19,3.61,3.61,0,0,0-1.49-2.38,1,1,0,0,0-1.56.53,2.88,2.88,0,0,0-.26,1.16c.07,1.06-3.79,14.64-16.06,17.78a21,21,0,0,1-20.23-5.74,18.12,18.12,0,0,1-3.9-6.72c-2.67-8.35,1.62-16,2.64-17.69a75.82,75.82,0,0,1-9.19-3.42,74,74,0,0,1-7.76-4,30.87,30.87,0,0,0-4.8,12.5,30.43,30.43,0,0,0,.85,12.94,31.28,31.28,0,0,0,9.07,14.17,35.4,35.4,0,0,0,16.32,8.82c2.23.51,17.3,3.69,28.58-6.24,2.84-2.5,5.73-5.87,7.06-9.44A20.35,20.35,0,0,0,220.71,181.67Z"/><path class="cls-4" d="M228.73,12.24C220,2,208,.81,204.29.43c-3.92-.4-11-1-18.43,2.72-9.71,4.92-17.7,16.26-14.63,21,2.47,3.8,10.58,3.24,14.18,2.94a32,32,0,0,0,14.9-5.25,13.74,13.74,0,0,1,9.87-1.59c1.27.29,5.67,1.5,7.88,5.35,2.61,4.56,1.26,11.28-3.71,16.06a52.68,52.68,0,0,1,11.38,4.22,53.34,53.34,0,0,1,6.47,3.9,32.55,32.55,0,0,0,4.5-15.48A33,33,0,0,0,228.73,12.24Z"/><path class="cls-5" d="M179.84,74.55l10,17.3a14.24,14.24,0,0,1,14.27.06L214,74.6A34.24,34.24,0,0,0,179.84,74.55Z"/><path class="cls-6" d="M167.29,121.29a34,34,0,0,0,12.54,12.5l10-17.22a13.88,13.88,0,0,1-7.11-12.34l-20,0A34,34,0,0,0,167.29,121.29Z"/><path class="cls-7" d="M231.12,104.21l-19.93,0a14.25,14.25,0,0,1-7.1,12.38L214,133.84A34.22,34.22,0,0,0,231.12,104.21Z"/><path class="cls-8" d="M197,96.71a7.53,7.53,0,1,0,7.53,7.53A7.54,7.54,0,0,0,197,96.71Z"/><path class="cls-9" d="M196.94,45.2a59,59,0,0,0-59,59h.24a.9.9,0,0,0-.08-.39c.53,1,4.76,3.67,17.61,6a41.6,41.6,0,1,1,82.4.22c10.66-1.79,15.77-3.89,17.81-5.21,0-.19,0-.38,0-.57A59,59,0,0,0,196.94,45.2Z"/><path class="cls-1" d="M501.74,129.23H466.21v-8.56a8.84,8.84,0,0,1,8.84-8.84h17a4,4,0,0,1,3.75,2.54Z"/><path class="cls-10" d="M254.73,113.14a92.91,92.91,0,0,1-18.38,4.29,41.6,41.6,0,0,1-78.93-.2,91.61,91.61,0,0,1-16.85-4c-.5-.18-1.23-.45-2.06-.82A59,59,0,0,0,189,162.64l4.11,23a5.68,5.68,0,0,0,2.29,1.15,6,6,0,0,0,5.53-1.66q2-11.24,4.07-22.48a59,59,0,0,0,50.34-49.71Z"/><path class="cls-11" d="M19.08,230v5.74H9.9a2.62,2.62,0,0,0-2.63,2.62V244H19.08v5.79H7.27V263H.89V237.25A7.29,7.29,0,0,1,8.18,230Z"/><path class="cls-1" d="M29.14,263.42a6.45,6.45,0,0,1-3.16-.76,5.52,5.52,0,0,1-2.21-2.13,6.33,6.33,0,0,1-.81-3.26,5.51,5.51,0,0,1,.81-3,6.89,6.89,0,0,1,2.13-2.1,12.43,12.43,0,0,1,2.91-1.33,20.22,20.22,0,0,1,3.18-.72,21.45,21.45,0,0,1,2.92-.25,4.17,4.17,0,0,0-1-3.07,4.44,4.44,0,0,0-3-.85,9.61,9.61,0,0,0-2.63.38,14.2,14.2,0,0,0-3,1.32l-.48-3.81a16.05,16.05,0,0,1,3.53-1.44,14.57,14.57,0,0,1,3.84-.51,8.86,8.86,0,0,1,4.1.86,5.45,5.45,0,0,1,2.5,2.82,13.47,13.47,0,0,1,.85,5.26v5.11a13.48,13.48,0,0,0,.15,2.32,1.65,1.65,0,0,0,.57,1.09,2.4,2.4,0,0,0,1.31.29h.57l-.51,3.81H40.4a7.28,7.28,0,0,1-2.37-.33,4,4,0,0,1-1.54-.91,5.46,5.46,0,0,1-1-1.4,7.53,7.53,0,0,1-2.75,1.93A9.23,9.23,0,0,1,29.14,263.42Zm1.63-3.62a5.44,5.44,0,0,0,2.15-.51,5.67,5.67,0,0,0,2-1.46V253a15.19,15.19,0,0,0-3.62.51,6,6,0,0,0-2.54,1.32,2.88,2.88,0,0,0-.93,2.21,2.68,2.68,0,0,0,.74,2.07A3.17,3.17,0,0,0,30.77,259.8Z"/><path class="cls-1" d="M45.08,238.53V233.7h4.67v4.83Zm0,24.47V242.22h4.67V263Z"/><path class="cls-1" d="M54.71,263V242.22h4.23l.23,2.66a10.58,10.58,0,0,1,2.53-2.18,5.78,5.78,0,0,1,3.12-.9,4,4,0,0,1,.94.1l-.38,4.75a4.34,4.34,0,0,0-.79-.13c-.27,0-.54,0-.82,0a5.27,5.27,0,0,0-2.61.65,4,4,0,0,0-1.68,1.5V263Z"/><path class="cls-1" d="M77.78,263.42a11.83,11.83,0,0,1-6.23-1.51,9.77,9.77,0,0,1-3.77-4,12.41,12.41,0,0,1-.08-10.73,9.48,9.48,0,0,1,3.45-3.87,10,10,0,0,1,5.52-1.46A9.69,9.69,0,0,1,81.52,243a7.8,7.8,0,0,1,3.07,3.17,9.89,9.89,0,0,1,1,4.62,10.33,10.33,0,0,1-.07,1.22c0,.43-.11.86-.2,1.31h-14A7.7,7.7,0,0,0,72.63,257a5.64,5.64,0,0,0,2.45,1.94,8.23,8.23,0,0,0,3.16.59,12.82,12.82,0,0,0,3.23-.4,14.19,14.19,0,0,0,2.9-1.12l.35,3.87a18.37,18.37,0,0,1-3,1.09A14.71,14.71,0,0,1,77.78,263.42Zm-6.22-13.27h9.31a5.22,5.22,0,0,0-.43-2.12,3.62,3.62,0,0,0-1.36-1.62,4.33,4.33,0,0,0-2.43-.61A4.69,4.69,0,0,0,73.22,247,6.21,6.21,0,0,0,71.56,250.15Z"/><path class="cls-1" d="M98.7,263V242.22h4.23l.23,2.66a10.78,10.78,0,0,1,2.53-2.18,5.83,5.83,0,0,1,3.12-.9,4,4,0,0,1,.94.1l-.37,4.75a4.45,4.45,0,0,0-.8-.13c-.26,0-.54,0-.81,0a5.3,5.3,0,0,0-2.62.65,4.1,4.1,0,0,0-1.68,1.5V263Z"/><path class="cls-1" d="M116.64,263.42a6.48,6.48,0,0,1-3.16-.76,5.52,5.52,0,0,1-2.21-2.13,6.33,6.33,0,0,1-.8-3.26,5.5,5.5,0,0,1,.8-3,6.82,6.82,0,0,1,2.14-2.1,12.07,12.07,0,0,1,2.91-1.33,19.72,19.72,0,0,1,3.18-.72,21.32,21.32,0,0,1,2.92-.25,4.17,4.17,0,0,0-1-3.07,4.41,4.41,0,0,0-3-.85,9.63,9.63,0,0,0-2.64.38,13.93,13.93,0,0,0-3,1.32l-.48-3.81a15.78,15.78,0,0,1,3.52-1.44,14.57,14.57,0,0,1,3.84-.51,8.9,8.9,0,0,1,4.11.86,5.49,5.49,0,0,1,2.5,2.82,13.67,13.67,0,0,1,.84,5.26v5.11a13.48,13.48,0,0,0,.15,2.32,1.61,1.61,0,0,0,.58,1.09,2.36,2.36,0,0,0,1.3.29h.57l-.5,3.81h-1.3a7.28,7.28,0,0,1-2.37-.33,3.92,3.92,0,0,1-1.53-.91,5.26,5.26,0,0,1-1-1.4,7.53,7.53,0,0,1-2.75,1.93A9.2,9.2,0,0,1,116.64,263.42Zm1.63-3.62a5.45,5.45,0,0,0,2.16-.51,5.85,5.85,0,0,0,2-1.46V253a15.12,15.12,0,0,0-3.62.51,6,6,0,0,0-2.55,1.32,2.88,2.88,0,0,0-.93,2.21,2.68,2.68,0,0,0,.74,2.07A3.17,3.17,0,0,0,118.27,259.8Z"/><path class="cls-1" d="M133.36,273.13,138,261.79l-8.64-19.57h5.21l5.73,14.12,5.57-14.12h5.19L138.2,273.13Z"/><path class="cls-1" d="M162.6,263.42a10.55,10.55,0,0,1-5.7-1.47,9.68,9.68,0,0,1-3.6-3.91,11.73,11.73,0,0,1-1.25-5.4,11.87,11.87,0,0,1,1.25-5.42,9.79,9.79,0,0,1,3.6-3.95,11.77,11.77,0,0,1,11.39,0,9.74,9.74,0,0,1,3.61,3.95,11.87,11.87,0,0,1,1.25,5.42,11.73,11.73,0,0,1-1.25,5.4,9.64,9.64,0,0,1-3.61,3.91A10.57,10.57,0,0,1,162.6,263.42Zm0-3.94a5.14,5.14,0,0,0,4.26-1.87,7.73,7.73,0,0,0,1.49-5,7.82,7.82,0,0,0-1.49-5,5.76,5.76,0,0,0-8.53,0,7.82,7.82,0,0,0-1.51,5,7.73,7.73,0,0,0,1.51,5A5.16,5.16,0,0,0,162.6,259.48Z"/><path class="cls-1" d="M176.83,263V242.22H181l.39,3.91-1.29-1.23a10.68,10.68,0,0,1,3.27-2.26,9.48,9.48,0,0,1,3.86-.78c2.79,0,4.84.88,6.13,2.64a11.45,11.45,0,0,1,1.95,7V263h-4.67V251.72a7.58,7.58,0,0,0-1.06-4.49,4.09,4.09,0,0,0-3.52-1.43,5.73,5.73,0,0,0-3.24.88,5.81,5.81,0,0,0-2.1,2.53l.78-2.47V263Z"/><path class="cls-1" d="M200,263V242.22h4.17l.39,3.91-1.29-1.23a10.68,10.68,0,0,1,3.27-2.26,9.48,9.48,0,0,1,3.86-.78c2.79,0,4.84.88,6.13,2.64a11.45,11.45,0,0,1,2,7V263h-4.67V251.72a7.58,7.58,0,0,0-1.06-4.49,4.09,4.09,0,0,0-3.52-1.43,5.73,5.73,0,0,0-3.24.88,5.81,5.81,0,0,0-2.1,2.53l.78-2.47V263Z"/><path class="cls-1" d="M233.25,263.42a11.8,11.8,0,0,1-6.22-1.51,9.7,9.7,0,0,1-3.77-4,12.32,12.32,0,0,1-.08-10.73,9.41,9.41,0,0,1,3.45-3.87,10,10,0,0,1,5.51-1.46A9.71,9.71,0,0,1,237,243a7.8,7.8,0,0,1,3.07,3.17,9.89,9.89,0,0,1,1.05,4.62,10.33,10.33,0,0,1-.07,1.22c-.05.43-.12.86-.2,1.31h-14a7.59,7.59,0,0,0,1.28,3.62,5.67,5.67,0,0,0,2.44,1.94,8.26,8.26,0,0,0,3.16.59,12.84,12.84,0,0,0,3.24-.4,14.19,14.19,0,0,0,2.9-1.12l.35,3.87a18.37,18.37,0,0,1-2.95,1.09A14.73,14.73,0,0,1,233.25,263.42ZM227,250.15h9.31a5.22,5.22,0,0,0-.43-2.12,3.62,3.62,0,0,0-1.36-1.62,4.35,4.35,0,0,0-2.44-.61A4.69,4.69,0,0,0,228.7,247,6.21,6.21,0,0,0,227,250.15Z"/><path class="cls-1" d="M244.76,263V242.22H249l.23,2.66a10.78,10.78,0,0,1,2.53-2.18,5.83,5.83,0,0,1,3.12-.9,4.13,4.13,0,0,1,.95.1l-.38,4.75a4.45,4.45,0,0,0-.8-.13q-.39,0-.81,0a5.33,5.33,0,0,0-2.62.65,4,4,0,0,0-1.67,1.5V263Z"/><path class="cls-1" d="M273.12,263.42a5.82,5.82,0,0,1-3.08-.73,4.37,4.37,0,0,1-1.73-1.94,6.35,6.35,0,0,1-.55-2.63V231.61h4.69V256a10.25,10.25,0,0,0,.21,2.46,1.26,1.26,0,0,0,.81,1,6.1,6.1,0,0,0,1.79.2l-.51,3.81Z"/><path class="cls-1" d="M283,263.42a6.51,6.51,0,0,1-3.16-.76,5.59,5.59,0,0,1-2.21-2.13,6.43,6.43,0,0,1-.8-3.26,5.59,5.59,0,0,1,.8-3,6.82,6.82,0,0,1,2.14-2.1,12.07,12.07,0,0,1,2.91-1.33,19.72,19.72,0,0,1,3.18-.72,21.32,21.32,0,0,1,2.92-.25,4.13,4.13,0,0,0-1-3.07,4.39,4.39,0,0,0-3-.85,9.63,9.63,0,0,0-2.64.38,13.93,13.93,0,0,0-3,1.32l-.48-3.81a16,16,0,0,1,3.52-1.44,14.57,14.57,0,0,1,3.84-.51,8.9,8.9,0,0,1,4.11.86,5.49,5.49,0,0,1,2.5,2.82,13.66,13.66,0,0,1,.85,5.26v5.11a13.69,13.69,0,0,0,.14,2.32,1.61,1.61,0,0,0,.58,1.09,2.37,2.37,0,0,0,1.31.29h.56l-.5,3.81h-1.3a7.17,7.17,0,0,1-2.36-.33,3.89,3.89,0,0,1-1.54-.91,5.26,5.26,0,0,1-1-1.4,7.53,7.53,0,0,1-2.75,1.93A9.2,9.2,0,0,1,283,263.42Zm1.63-3.62a5.45,5.45,0,0,0,2.16-.51,5.85,5.85,0,0,0,2-1.46V253a15.12,15.12,0,0,0-3.62.51,6.09,6.09,0,0,0-2.55,1.32,2.88,2.88,0,0,0-.93,2.21,2.65,2.65,0,0,0,.75,2.07A3.13,3.13,0,0,0,284.63,259.8Z"/><path class="cls-1" d="M308.37,263V242.22h4.22l.23,2.66a10.63,10.63,0,0,1,2.54-2.18,5.77,5.77,0,0,1,3.11-.9,4.13,4.13,0,0,1,.95.1l-.38,4.75a4.45,4.45,0,0,0-.8-.13q-.39,0-.81,0a5.33,5.33,0,0,0-2.62.65,4.07,4.07,0,0,0-1.67,1.5V263Z"/><path class="cls-1" d="M326.3,263.42a6.51,6.51,0,0,1-3.16-.76,5.59,5.59,0,0,1-2.21-2.13,6.43,6.43,0,0,1-.8-3.26,5.59,5.59,0,0,1,.8-3,6.82,6.82,0,0,1,2.14-2.1,12.07,12.07,0,0,1,2.91-1.33,19.72,19.72,0,0,1,3.18-.72,21.45,21.45,0,0,1,2.92-.25,4.13,4.13,0,0,0-1-3.07,4.39,4.39,0,0,0-3-.85,9.63,9.63,0,0,0-2.64.38,14.15,14.15,0,0,0-3,1.32l-.48-3.81a15.86,15.86,0,0,1,3.53-1.44,14.46,14.46,0,0,1,3.84-.51,8.86,8.86,0,0,1,4.1.86,5.49,5.49,0,0,1,2.5,2.82,13.66,13.66,0,0,1,.85,5.26v5.11a14.83,14.83,0,0,0,.14,2.32,1.61,1.61,0,0,0,.58,1.09,2.37,2.37,0,0,0,1.31.29h.56l-.5,3.81h-1.3a7.17,7.17,0,0,1-2.36-.33,4,4,0,0,1-1.54-.91,5.26,5.26,0,0,1-1-1.4,7.53,7.53,0,0,1-2.75,1.93A9.2,9.2,0,0,1,326.3,263.42Zm1.63-3.62a5.45,5.45,0,0,0,2.16-.51,5.85,5.85,0,0,0,2-1.46V253a15.12,15.12,0,0,0-3.62.51,6,6,0,0,0-2.54,1.32,2.86,2.86,0,0,0-.94,2.21,2.65,2.65,0,0,0,.75,2.07A3.13,3.13,0,0,0,327.93,259.8Z"/><path class="cls-1" d="M350.58,263.42a8.84,8.84,0,0,1-5.12-1.47,9.56,9.56,0,0,1-3.3-3.91,12.6,12.6,0,0,1-1.15-5.38,12.9,12.9,0,0,1,1.11-5.37,9.39,9.39,0,0,1,3.26-3.94,8.9,8.9,0,0,1,5.2-1.49,9,9,0,0,1,3.92.81,8.17,8.17,0,0,1,2.92,2.31l-1.09.9V231.61H361V263h-4.33l-.42-3.85,1.32.94a9.14,9.14,0,0,1-3,2.46A8.7,8.7,0,0,1,350.58,263.42Zm.73-3.94a5,5,0,0,0,2.81-.79,5.31,5.31,0,0,0,1.86-2.32,9.35,9.35,0,0,0,.67-3.71A9.25,9.25,0,0,0,356,249a5.46,5.46,0,0,0-1.86-2.37,4.82,4.82,0,0,0-2.81-.82,5,5,0,0,0-3,.88,5.48,5.48,0,0,0-1.89,2.42,9,9,0,0,0-.66,3.56,8.88,8.88,0,0,0,.66,3.5,5.57,5.57,0,0,0,1.89,2.43A4.89,4.89,0,0,0,351.31,259.48Z"/><path class="cls-1" d="M365.9,238.53V233.7h4.67v4.83Zm0,24.47V242.22h4.67V263Z"/><path class="cls-1" d="M384.84,263.42a10.53,10.53,0,0,1-5.7-1.47,9.68,9.68,0,0,1-3.6-3.91,11.61,11.61,0,0,1-1.25-5.4,11.75,11.75,0,0,1,1.25-5.42,9.79,9.79,0,0,1,3.6-3.95,11.77,11.77,0,0,1,11.39,0,9.74,9.74,0,0,1,3.61,3.95,11.87,11.87,0,0,1,1.25,5.42,11.73,11.73,0,0,1-1.25,5.4,9.64,9.64,0,0,1-3.61,3.91A10.57,10.57,0,0,1,384.84,263.42Zm0-3.94a5.14,5.14,0,0,0,4.26-1.87,7.78,7.78,0,0,0,1.49-5,7.88,7.88,0,0,0-1.49-5,5.76,5.76,0,0,0-8.53,0,7.76,7.76,0,0,0-1.51,5,7.67,7.67,0,0,0,1.51,5A5.16,5.16,0,0,0,384.84,259.48Z"/><path class="cls-1" d="M399.07,273.13V242.22h3.73l.9,3.91-1.39-.61a11.57,11.57,0,0,1,3.18-2.66,8.57,8.57,0,0,1,4.32-1,8.47,8.47,0,0,1,5.05,1.47,9.11,9.11,0,0,1,3.13,3.91,13.38,13.38,0,0,1,1.07,5.4A13.54,13.54,0,0,1,418,258a9,9,0,0,1-3.1,3.91,8.52,8.52,0,0,1-5.1,1.47,9.67,9.67,0,0,1-4.14-.8,8.38,8.38,0,0,1-3-2.47l1.07-.94v13.92Zm10-13.65a4.5,4.5,0,0,0,3.85-1.87,9.6,9.6,0,0,0,0-10,4.52,4.52,0,0,0-3.85-1.86,5.31,5.31,0,0,0-3,.82,5.14,5.14,0,0,0-1.89,2.36,10.74,10.74,0,0,0,0,7.36,5,5,0,0,0,1.89,2.34A5.38,5.38,0,0,0,409.05,259.48Z"/><path class="cls-1" d="M422.74,263V231.61h4.69v13.85l-1.24-.61a15.19,15.19,0,0,1,2.95-2.12,8.09,8.09,0,0,1,3.92-.87,7.71,7.71,0,0,1,4.48,1.22,7.05,7.05,0,0,1,2.59,3.37,13.68,13.68,0,0,1,.84,5V263H436.3V251.84a7.89,7.89,0,0,0-1.06-4.57,3.81,3.81,0,0,0-3.33-1.47,5.22,5.22,0,0,0-3.15.92,7.49,7.49,0,0,0-2.17,2.47l.84-2.62V263Z"/><path class="cls-1" d="M450.32,263.42a6.51,6.51,0,0,1-3.16-.76,5.5,5.5,0,0,1-2.2-2.13,6.33,6.33,0,0,1-.81-3.26,5.51,5.51,0,0,1,.81-3,6.68,6.68,0,0,1,2.13-2.1,12.43,12.43,0,0,1,2.91-1.33,19.72,19.72,0,0,1,3.18-.72,21.45,21.45,0,0,1,2.92-.25,4.17,4.17,0,0,0-1-3.07,4.44,4.44,0,0,0-3-.85,9.5,9.5,0,0,0-2.63.38,14.2,14.2,0,0,0-3,1.32l-.48-3.81a15.86,15.86,0,0,1,3.53-1.44,14.57,14.57,0,0,1,3.84-.51,8.86,8.86,0,0,1,4.1.86,5.45,5.45,0,0,1,2.5,2.82,13.47,13.47,0,0,1,.85,5.26v5.11a13.48,13.48,0,0,0,.15,2.32,1.57,1.57,0,0,0,.57,1.09,2.4,2.4,0,0,0,1.31.29h.56l-.5,3.81h-1.3a7.21,7.21,0,0,1-2.36-.33,4,4,0,0,1-1.54-.91,5,5,0,0,1-1-1.4,7.57,7.57,0,0,1-2.76,1.93A9.2,9.2,0,0,1,450.32,263.42ZM452,259.8a5.44,5.44,0,0,0,2.15-.51,5.85,5.85,0,0,0,2-1.46V253a15.19,15.19,0,0,0-3.62.51,6,6,0,0,0-2.54,1.32,2.88,2.88,0,0,0-.93,2.21,2.64,2.64,0,0,0,.74,2.07A3.14,3.14,0,0,0,452,259.8Z"/><path class="cls-1" d="M466.27,263V242.22h4.23l.23,2.66a10.58,10.58,0,0,1,2.53-2.18,5.78,5.78,0,0,1,3.12-.9,4,4,0,0,1,.94.1l-.37,4.75a4.59,4.59,0,0,0-.8-.13c-.27,0-.54,0-.82,0a5.27,5.27,0,0,0-2.61.65,4,4,0,0,0-1.68,1.5V263Z"/><path class="cls-1" d="M479.87,263V242.22h3.9l.48,3.39-1-.84a11.18,11.18,0,0,1,3.17-2.13,9.24,9.24,0,0,1,3.86-.78,8.63,8.63,0,0,1,2.94.49,6.28,6.28,0,0,1,2.32,1.52,7.54,7.54,0,0,1,1.6,2.62l-1.19-.36a7.18,7.18,0,0,1,2.91-3.14,9,9,0,0,1,4.64-1.13,8.71,8.71,0,0,1,4.59,1.1,6.58,6.58,0,0,1,2.67,3.19,13.17,13.17,0,0,1,.86,5V263H507V251.45a7.37,7.37,0,0,0-1-4.28,3.71,3.71,0,0,0-3.26-1.37,5.08,5.08,0,0,0-2.22.43,3.35,3.35,0,0,0-1.42,1.2,5.15,5.15,0,0,0-.75,1.76,9.92,9.92,0,0,0-.22,2.09V263h-4.68V251.72a10.1,10.1,0,0,0-.49-3.45,3.54,3.54,0,0,0-1.44-1.89,4.53,4.53,0,0,0-2.39-.58,5.47,5.47,0,0,0-5.33,3.37l.77-2.52V263Z"/><path class="cls-1" d="M521,263.42a6.48,6.48,0,0,1-3.16-.76,5.59,5.59,0,0,1-2.21-2.13,6.33,6.33,0,0,1-.8-3.26,5.5,5.5,0,0,1,.8-3,6.82,6.82,0,0,1,2.14-2.1,12.07,12.07,0,0,1,2.91-1.33,19.72,19.72,0,0,1,3.18-.72,21.32,21.32,0,0,1,2.92-.25,4.17,4.17,0,0,0-1-3.07,4.41,4.41,0,0,0-3-.85,9.63,9.63,0,0,0-2.64.38,13.93,13.93,0,0,0-3,1.32l-.48-3.81a15.78,15.78,0,0,1,3.52-1.44,14.57,14.57,0,0,1,3.84-.51,8.9,8.9,0,0,1,4.11.86,5.49,5.49,0,0,1,2.5,2.82,13.67,13.67,0,0,1,.84,5.26v5.11a13.48,13.48,0,0,0,.15,2.32,1.61,1.61,0,0,0,.58,1.09,2.36,2.36,0,0,0,1.3.29h.57l-.5,3.81h-1.3a7.28,7.28,0,0,1-2.37-.33,3.92,3.92,0,0,1-1.53-.91,5.26,5.26,0,0,1-1-1.4,7.53,7.53,0,0,1-2.75,1.93A9.2,9.2,0,0,1,521,263.42Zm1.63-3.62a5.45,5.45,0,0,0,2.16-.51,5.85,5.85,0,0,0,2-1.46V253a15.12,15.12,0,0,0-3.62.51,6,6,0,0,0-2.55,1.32,2.88,2.88,0,0,0-.93,2.21,2.65,2.65,0,0,0,.75,2.07A3.13,3.13,0,0,0,522.63,259.8Z"/><path class="cls-1" d="M546.55,263.42a11.32,11.32,0,0,1-6-1.46,9.31,9.31,0,0,1-3.63-3.89,11.77,11.77,0,0,1-1.23-5.39,12.24,12.24,0,0,1,1.21-5.48,9.23,9.23,0,0,1,3.65-3.94,11.91,11.91,0,0,1,6.17-1.46,12.77,12.77,0,0,1,3.14.36,11.07,11.07,0,0,1,2.47.94l-.48,3.87a11.39,11.39,0,0,0-2.26-.85,9.89,9.89,0,0,0-2.57-.32,6.24,6.24,0,0,0-4.85,1.85,7,7,0,0,0-1.71,5,7.27,7.27,0,0,0,1.7,4.94A6,6,0,0,0,547,259.5a9.15,9.15,0,0,0,2.56-.35,12,12,0,0,0,2.38-1l.48,3.9a10.67,10.67,0,0,1-2.56,1A13.09,13.09,0,0,1,546.55,263.42Z"/><path class="cls-1" d="M556,238.53V233.7h4.67v4.83ZM556,263V242.22h4.67V263Z"/><path class="cls-1" d="M575.6,263.42a11.8,11.8,0,0,1-6.22-1.51,9.7,9.7,0,0,1-3.77-4,12.32,12.32,0,0,1-.08-10.73,9.34,9.34,0,0,1,3.45-3.87,10,10,0,0,1,5.51-1.46,9.71,9.71,0,0,1,4.86,1.15,7.72,7.72,0,0,1,3.06,3.17,9.77,9.77,0,0,1,1.06,4.62,10.33,10.33,0,0,1-.07,1.22c0,.43-.12.86-.2,1.31h-14a7.7,7.7,0,0,0,1.27,3.62,5.75,5.75,0,0,0,2.45,1.94,8.26,8.26,0,0,0,3.16.59,12.84,12.84,0,0,0,3.24-.4,14.19,14.19,0,0,0,2.9-1.12l.35,3.87a18.37,18.37,0,0,1-2.95,1.09A14.73,14.73,0,0,1,575.6,263.42Zm-6.21-13.27h9.31a5.22,5.22,0,0,0-.43-2.12,3.68,3.68,0,0,0-1.36-1.62,4.35,4.35,0,0,0-2.44-.61,4.69,4.69,0,0,0-3.42,1.19A6.13,6.13,0,0,0,569.39,250.15Z"/></g></svg>